<svg id="Layer_1" data-name="Layer 1" xmlns="http://www.w3.org/2000/svg" viewBox="0 0 120.14 75.05"><defs><style>.cls-1{fill:#121212;}</style></defs><path className="cls-1" d="M554.58,574.75a7.6,7.6,0,0,1,1.66,1q7.82,7.74,15.55,15.54A7.49,7.49,0,0,1,567.24,604a6.94,6.94,0,0,1-5.94-2q-15.13-15.09-30.21-30.22a7.21,7.21,0,0,1,.06-10.44q15-15.1,30.09-30.09a7.47,7.47,0,0,1,10.6,10.52c-5.11,5.25-10.34,10.39-15.51,15.57-.45.45-.88.92-1.7,1.78H557q41.67,0,83.35,0a12.09,12.09,0,0,1,3.8.47,7.3,7.3,0,0,1,4.82,7.89A7.38,7.38,0,0,1,642,574c-.76,0-1.52,0-2.29,0H555.17Z" transform="translate(-528.89 -529)"/></svg>