<svg id="Layer_1" data-name="Layer 1" xmlns="http://www.w3.org/2000/svg" viewBox="0 0 331.4 234.2"><defs><style>.cls-1{fill:#2a3259;}.cls-2{fill:#0b102f;}</style></defs><path class="cls-1" d="M543.51,587.05c0-5.5.07-9.67,0-13.84a22.2,22.2,0,0,0-8.1-17.12c-5.79-4.87-11.79-9.5-17.82-14.07a12.83,12.83,0,0,0-15.56-.1c-1.28.89-2.49,1.89-3.81,2.72-12.14,7.63-27.75,6.9-39.7-1.84-6.47-4.73-12-4.62-18.31.33-5.19,4.1-10.44,8.11-15.56,12.3a22.93,22.93,0,0,0-8.86,18.35c0,7.83-.08,15.65,0,23.47.12,11,6.78,19.8,17.33,23.08a170,170,0,0,0,25.62,5.92,145.52,145.52,0,0,0,69-6.5c8.35-2.84,13.47-9,15.32-17.64C544.16,596.7,543.23,591.18,543.51,587.05Zm-8.39,10.63c.09-4,0-8,0-12s0-7.83,0-11.74c0,3.91,0,7.83,0,11.74S535.21,593.68,535.12,597.68Z" transform="translate(-415.72 -396.44)"/><path class="cls-1" d="M478.11,541c14.68.25,25.52-6.61,31.36-20.24,5.46-12.73,5.68-25.82,1.61-39-2.8-9.05-9.13-14.58-18.32-16.72-4.36-1-8.86-.29-12.58-.47h-7.77c-11.64,0-19.55,5.2-23.61,16.13a55,55,0,0,0,.12,38.77C453.4,531.85,466,540.79,478.11,541Z" transform="translate(-415.72 -396.44)"/><path class="cls-1" d="M747,585c0-6,.08-10.64,0-15.23a24.45,24.45,0,0,0-8.92-18.85c-6.37-5.37-13-10.45-19.62-15.48-5.22-4-11.75-3.89-17.13-.12-1.41,1-2.74,2.09-4.2,3-13.36,8.4-30.55,7.59-43.7-2-7.12-5.2-13.25-5.09-20.15.36-5.72,4.51-11.5,8.93-17.13,13.54a25.26,25.26,0,0,0-9.76,20.21c0,8.61-.08,17.23,0,25.84.13,12.15,7.46,21.8,19.07,25.4a185.33,185.33,0,0,0,28.2,6.51A159.94,159.94,0,0,0,729.6,621c9.2-3.13,14.84-9.89,16.86-19.42C747.73,595.63,746.71,589.56,747,585Zm-9.24,11.71c.1-4.4,0-8.81,0-13.21s0-8.61,0-12.92c0,4.31,0,8.62,0,12.92S737.88,592.31,737.78,596.71Z" transform="translate(-415.72 -396.44)"/><path class="cls-1" d="M675,534.31c16.16.28,28.09-7.28,34.52-22.28,6-14,6.26-28.43,1.78-42.9-3.09-10-10.06-16.05-20.17-18.41-4.8-1.12-9.75-.31-13.85-.51h-8.55c-12.82,0-21.53,5.72-26,17.76-5.26,14.17-5,28.59.12,42.68C647.82,524.23,661.73,534.08,675,534.31Z" transform="translate(-415.72 -396.44)"/><path class="cls-2" d="M676.59,572.16c0-7.88.11-13.86,0-19.84A31.82,31.82,0,0,0,665,527.76c-8.3-7-16.91-13.61-25.55-20.17-6.81-5.16-15.31-5.06-22.32-.16-1.84,1.29-3.57,2.73-5.47,3.92-17.41,10.94-39.8,9.88-56.94-2.65-9.27-6.78-17.25-6.63-26.25.48-7.44,5.87-15,11.63-22.32,17.63-8.28,6.77-12.65,15.57-12.71,26.33-.06,11.22-.11,22.44,0,33.66.17,15.84,9.73,28.4,24.85,33.1A243.08,243.08,0,0,0,555,628.38c33.76,5,66.73,1.63,98.92-9.32,12-4.07,19.32-12.88,22-25.3C677.53,586,676.2,578.1,676.59,572.16Zm-12,15.25c.12-5.73,0-11.46,0-17.2s0-11.22,0-16.83c0,5.61,0,11.22,0,16.83S664.69,581.68,664.57,587.41Z" transform="translate(-415.72 -396.44)"/><path class="cls-2" d="M582.81,506.12c21,.37,36.59-9.48,45-29,7.83-18.26,8.15-37,2.31-55.89-4-13-13.1-20.91-26.27-24-6.26-1.46-12.71-.41-18.05-.67H574.63c-16.7,0-28,7.46-33.86,23.14-6.85,18.46-6.5,37.24.17,55.59C547.37,493,565.49,505.82,582.81,506.12Z" transform="translate(-415.72 -396.44)"/></svg>