<svg id="Layer_1" data-name="Layer 1" xmlns="http://www.w3.org/2000/svg" xmlns:xlink="http://www.w3.org/1999/xlink" viewBox="0 0 36.53 32.29"><defs><style>.cls-1{fill:url(#linear-gradient);}.cls-2{fill:url(#linear-gradient-2);}</style><linearGradient id="linear-gradient" x1="72" y1="29.76" x2="104.16" y2="37.25" gradientUnits="userSpaceOnUse"><stop offset="0" stop-color="#72320f"/><stop offset="0.07" stop-color="#d2972d"/><stop offset="0.14" stop-color="#f7f4c1"/><stop offset="0.23" stop-color="#d2972d"/><stop offset="0.36" stop-color="#d8a543"/><stop offset="0.46" stop-color="#f7f4c1"/><stop offset="0.59" stop-color="#e5c677"/><stop offset="0.72" stop-color="#d8a645"/><stop offset="0.82" stop-color="#efdf9f"/><stop offset="0.89" stop-color="#dbac4f"/><stop offset="1" stop-color="#72320f"/></linearGradient><linearGradient id="linear-gradient-2" x1="67.07" y1="19.42" x2="105.74" y2="24.56" xlink:href="#linear-gradient"/></defs><path class="cls-1" d="M105.84,28l-4.42-.64a.08.08,0,0,0-.08.13l.76,1c-.95.56-3.19,2.08-3.34,2.18l-13.39,9-2.69-4,6.47-4.37a.69.69,0,0,0,.32-.47.63.63,0,0,0-.11-.53l-1.23-1.83a.71.71,0,0,0-.47-.33.73.73,0,0,0-.56.13l-6.47,4.36L78,28.75l8-5.39a.74.74,0,0,0,.33-.47.7.7,0,0,0-.11-.54l-1.33-2a.74.74,0,0,0-.47-.33.68.68,0,0,0-.56.13L72.7,27.71a.7.7,0,0,0-.33.47.72.72,0,0,0,.12.56l10.81,16a.74.74,0,0,0,.47.33.68.68,0,0,0,.56-.13L100.9,33.82c.16-.1,2.61-1.89,3.32-2.51l.9,1.2a.08.08,0,0,0,.15,0l.64-4.42A.07.07,0,0,0,105.84,28Z" transform="translate(-69.38 -12.83)"/><path class="cls-2" d="M86,13a.73.73,0,0,1,.56-.12.69.69,0,0,1,.48.33l10.8,16a.72.72,0,0,1,.13.56.74.74,0,0,1-.33.47L94.93,32.1a.72.72,0,0,1-.56.12.74.74,0,0,1-.47-.33l-9-13.35L72,27.27a.72.72,0,0,1-.56.12.69.69,0,0,1-.47-.32L69.52,25a.71.71,0,0,1-.12-.56.69.69,0,0,1,.32-.47Z" transform="translate(-69.38 -12.83)"/></svg>