<svg id="Layer_1" data-name="Layer 1" xmlns="http://www.w3.org/2000/svg" viewBox="0 0 36.53 32.29">
  <path
    fill="#F28E33"
    d="M105.84,28l-4.42-.64a.08.08,0,0,0-.08.13l.76,1c-.95.56-3.19,2.08-3.34,2.18l-13.39,9-2.69-4,6.47-4.37a.69.69,0,0,0,.32-.47.63.63,0,0,0-.11-.53l-1.23-1.83a.71.71,0,0,0-.47-.33.73.73,0,0,0-.56.13l-6.47,4.36L78,28.75l8-5.39a.74.74,0,0,0,.33-.47.7.7,0,0,0-.11-.54l-1.33-2a.74.74,0,0,0-.47-.33.68.68,0,0,0-.56.13L72.7,27.71a.7.7,0,0,0-.33.47.72.72,0,0,0,.12.56l10.81,16a.74.74,0,0,0,.47.33.68.68,0,0,0,.56-.13L100.9,33.82c.16-.1,2.61-1.89,3.32-2.51l.9,1.2a.08.08,0,0,0,.15,0l.64-4.42A.07.07,0,0,0,105.84,28Z"
    transform="translate(-69.38 -12.83)"
  />
  <path
    fill="#F28E33"
    d="M86,13a.73.73,0,0,1,.56-.12.69.69,0,0,1,.48.33l10.8,16a.72.72,0,0,1,.13.56.74.74,0,0,1-.33.47L94.93,32.1a.72.72,0,0,1-.56.12.74.74,0,0,1-.47-.33l-9-13.35L72,27.27a.72.72,0,0,1-.56.12.69.69,0,0,1-.47-.32L69.52,25a.71.71,0,0,1-.12-.56.69.69,0,0,1,.32-.47Z"
    transform="translate(-69.38 -12.83)"
  />
</svg>
