<svg id="Layer_1" data-name="Layer 1" xmlns="http://www.w3.org/2000/svg" viewBox="0 0 211.9 211.88"><defs><style>.cls-1{fill:#0b102f;}.cls-2{fill:#e63a47;}.cls-3{fill:#222e56;}.cls-4{fill:#bbc8cf;}.cls-5{fill:#a3b4bc;}</style></defs><path class="cls-1" d="M871.86,174.55h5c.11.46.51.34.81.44a12,12,0,0,1,9,9.79,22,22,0,0,1,.16,5.56c-.1,1.58.41,1.95,2,1.94,7.78-.07,15.57-.12,23.36,0a13.8,13.8,0,0,1,13.2,10.78c.07.32,0,.71.4.85V375.25c-.13.14-.34.24-.4.41-2.88,7.77-7.15,10.77-15.39,10.77h-79q-51.21,0-102.4,0c-8.45,0-14.67-6-14.68-14.31q0-54.3,0-108.59c0-2.72.94-3.77,3.71-4.25,2.7.77,3.34,1.64,3.34,4.62v107c0,5.94,2.61,8.52,8.6,8.52H910c6,0,8.57-2.6,8.57-8.56q0-68.68,0-137.37c0-2.06-.58-2.42-2.5-2.42q-56.28.09-112.56,0-40.33,0-80.69,0c-1.74,0-2.18.44-2.13,2.15.12,4.83.05,9.66,0,14.48,0,2.94-.52,3.66-3.33,4.7-3-.78-3.72-1.65-3.72-4.73q0-20.25,0-40.5c0-8.93,5.91-14.84,14.88-14.88,7,0,14.05,0,21.07,0,2.92,0,3,0,2.89-3-.35-7.1,2.36-12.13,9.37-14.42.1,0,.14-.21.21-.32h5c.12.14.24.36.39.39,5,1,7.93,4.14,9.36,8.84a15.94,15.94,0,0,1,.42,6.15c-.18,1.95.52,2.36,2.38,2.36,25.71-.07,51.42,0,77.12,0,1.65,0,3.73.5,4.81-.3s.35-3.08.41-4.7c.21-6.11,3.39-10.38,9.23-12.25C871.55,174.91,871.81,174.89,871.86,174.55Zm-52.25,49.39H903.2c4.55,0,9.1,0,13.65,0,1.1,0,1.81-.07,1.79-1.51-.08-5.45,0-10.9-.07-16.34a6.75,6.75,0,0,0-6.54-6.73c-7.94-.1-15.87,0-23.8-.07-1,0-1.51.29-1.45,1.4.07,1.38,0,2.76,0,4.14a12.34,12.34,0,0,1-24.52,1.64,25.34,25.34,0,0,1-.19-5.36c.08-1.5-.5-1.83-1.9-1.83q-40.45.06-80.9,0c-1.39,0-2,.31-1.9,1.82a24.33,24.33,0,0,1,0,3.52c-.29,6.44-4.91,11.61-10.83,12.16-6.69.63-12.2-3.27-13.65-9.69a23,23,0,0,1-.22-6c.06-1.48-.46-1.85-1.88-1.84-7.44.06-14.89,0-22.34,0-4.75,0-7.6,2.85-7.62,7.58s.12,9.66-.07,14.48c-.08,2.15.58,2.6,2.63,2.59Q771.5,223.89,819.61,223.94Zm-49.49-28.29c0-2.82,0-5.64,0-8.46,0-3.17-2.24-5.59-5.08-5.58a5.23,5.23,0,0,0-5.3,5.43q-.11,8.76,0,17.53a5.14,5.14,0,0,0,5.27,5.18c3,0,5.06-2,5.11-5.23C770.15,201.56,770.12,198.61,770.12,195.65Zm109.61.24h0c0-3,.08-6,0-9.07a5.19,5.19,0,1,0-10.38.18q0,8.67,0,17.33c0,3.4,2,5.45,5.13,5.42a5.19,5.19,0,0,0,5.27-5.4C879.76,201.53,879.73,198.71,879.73,195.89Z" transform="translate(-713.76 -174.55)"/><path class="cls-2" d="M819.61,223.94q-48.12,0-96.22,0c-2,0-2.71-.44-2.63-2.59.19-4.82,0-9.65.07-14.48s2.87-7.57,7.62-7.58c7.45,0,14.9,0,22.34,0,1.42,0,1.94.36,1.88,1.84a23,23,0,0,0,.22,6c1.45,6.42,7,10.32,13.65,9.69,5.92-.55,10.54-5.72,10.83-12.16a24.33,24.33,0,0,0,0-3.52c-.15-1.51.51-1.82,1.9-1.82q40.46.06,80.9,0c1.4,0,2,.33,1.9,1.83a25.34,25.34,0,0,0,.19,5.36,12.34,12.34,0,0,0,24.52-1.64c0-1.38.07-2.76,0-4.14-.06-1.11.41-1.4,1.45-1.4,7.93,0,15.86,0,23.8.07a6.75,6.75,0,0,1,6.54,6.73c.11,5.44,0,10.89.07,16.34,0,1.44-.69,1.52-1.79,1.51-4.55,0-9.1,0-13.65,0Z" transform="translate(-713.76 -174.55)"/><path class="cls-3" d="M770.12,195.65c0,3,0,5.91,0,8.87-.05,3.23-2.06,5.25-5.11,5.23a5.14,5.14,0,0,1-5.27-5.18q-.11-8.76,0-17.53a5.23,5.23,0,0,1,5.3-5.43c2.84,0,5.06,2.41,5.08,5.58C770.14,190,770.12,192.83,770.12,195.65Z" transform="translate(-713.76 -174.55)"/><path class="cls-3" d="M879.73,195.89c0,2.82,0,5.64,0,8.46a5.19,5.19,0,0,1-5.27,5.4c-3.13,0-5.11-2-5.13-5.42q0-8.66,0-17.33a5.19,5.19,0,1,1,10.38-.18c.1,3,0,6.05,0,9.07Z" transform="translate(-713.76 -174.55)"/><path class="cls-1" d="M812.81,252.11c10.41-5.26,20.87-3.44,31.36-.82,5.74,1.43,11.45,3.06,17.42,3.24a29.66,29.66,0,0,0,9.6-1.12c4.95-1.52,8.54,1.14,8.55,6.29q0,21.19,0,42.4c0,3.68-1.29,5.54-4.77,6.89-7.21,2.79-14.57,2.48-22,1.05-7-1.33-13.71-3.65-20.77-4.5-6.13-.74-12.1-.31-17.53,3.1a4,4,0,0,0-2.07,3.85c.11,11.1.09,22.2,0,33.3,0,1.46.37,1.86,1.82,1.8,2.82-.12,5.65-.06,8.48,0a10.57,10.57,0,0,1,10.88,10.81c0,1.79.06,3.58,0,5.37a5.11,5.11,0,0,1-4.88,4.95c-.61.05-1.24.05-1.86.05H777c-5,0-6.7-1.75-6.71-6.74,0-1.51,0-3,.07-4.55a10.49,10.49,0,0,1,10.31-9.87c2.75-.08,5.52-.15,8.27,0,2,.12,2.63-.31,2.63-2.51-.09-30.47-.06-60.95-.07-91.42a14.22,14.22,0,0,1,.62-5.1,10.77,10.77,0,0,1,10.48-6.93,10.59,10.59,0,0,1,9.73,8.16C812.48,250.47,812.61,251.14,812.81,252.11Zm-.14,49.49c8.09-4,16.25-4.07,24.51-2.41,5.6,1.13,11.12,2.63,16.71,3.81s11.45,1.66,17.16-.12c1.12-.34,1.68-.77,1.67-2.11q-.09-19.32,0-38.66c0-1.26-.23-1.74-1.62-1.4-6.36,1.53-12.72,1-19.05-.29-7.42-1.48-14.62-4-22.23-4.54-5.54-.36-10.84.44-15.58,3.65a3.24,3.24,0,0,0-1.6,3.06c.1,4.69,0,9.37,0,14.06Zm-7.06-2.28V253.84c0-3.35-1.16-5.07-3.46-5.14s-3.59,1.68-3.59,5.17v88.69c0,5,0,4.93,5,5.05,1.77,0,2.12-.51,2.11-2.19C805.58,330.05,805.61,314.69,805.61,299.32ZM802,361.67c7.65,0,15.3,0,23,0,.63,0,1.53.5,1.82-.72.93-3.95-.9-6.31-5-6.32H782.5c-4.13,0-5.06,1-5.17,5.1-.05,1.75.61,2,2.13,2C787,361.63,794.48,361.67,802,361.67Z" transform="translate(-713.76 -174.55)"/><path class="cls-2" d="M812.67,301.6v-25c0-4.69.06-9.37,0-14.06a3.24,3.24,0,0,1,1.6-3.06c4.74-3.21,10-4,15.58-3.65,7.61.5,14.81,3.06,22.23,4.54,6.33,1.27,12.69,1.82,19.05.29,1.39-.34,1.62.14,1.62,1.4q-.06,19.33,0,38.66c0,1.34-.55,1.77-1.67,2.11-5.71,1.78-11.45,1.32-17.16.12s-11.11-2.68-16.71-3.81C828.92,297.53,820.76,297.58,812.67,301.6Z" transform="translate(-713.76 -174.55)"/><path class="cls-4" d="M805.61,299.32c0,15.37,0,30.73,0,46.1,0,1.68-.34,2.23-2.11,2.19-5-.12-5,0-5-5.05V253.87c0-3.49,1.22-5.25,3.59-5.17s3.46,1.79,3.46,5.14Z" transform="translate(-713.76 -174.55)"/><path class="cls-5" d="M802,361.67c-7.52,0-15,0-22.54,0-1.52,0-2.18-.24-2.13-2,.11-4.07,1-5.1,5.17-5.1h39.29c4.08,0,5.91,2.37,5,6.32-.29,1.22-1.19.71-1.82.72C817.3,361.68,809.65,361.67,802,361.67Z" transform="translate(-713.76 -174.55)"/></svg>