<svg id="Layer_1" data-name="Layer 1" xmlns="http://www.w3.org/2000/svg" viewBox="0 0 353.48 290.3"><defs><style>.cls-1{fill:#0f160c;}.cls-2{fill:#0f0e09;}.cls-3{fill:#aecc6d;}.cls-4{fill:#b2d06f;}.cls-5{fill:#b1cf6f;}.cls-6{fill:#b1d06f;}.cls-7{fill:#d4dfea;}.cls-8{fill:#f2c64a;}.cls-9{fill:#d7e3ee;}.cls-10{fill:#0c0f0c;}.cls-11{fill:#110e01;}</style></defs><path class="cls-1" d="M780.53,465.34q-55,0-110,0c-3.71,0-7.26-.23-9.73-3.54a9.41,9.41,0,0,1-2-5.87c0-12.34,0-24.69,0-37,0-5.37,3.17-8.84,8.51-9.56a28.94,28.94,0,0,1,3.73-.15q109.41,0,218.84-.07c7,0,12.52,2.78,12.17,12.17-.41,11.09-.09,22.2-.1,33.29,0,7.43-3.37,10.73-11.09,10.74Q835.71,465.36,780.53,465.34ZM865,437.75c0-6-.07-11.95,0-17.92,0-2-.39-2.93-2.66-2.87-5.59.14-11.19.13-16.79,0-2.18,0-2.71.74-2.7,2.81q.14,17.53,0,35.08c0,2,.37,2.9,2.62,2.84,5.6-.15,11.2-.14,16.8,0,2.15.05,2.77-.69,2.73-2.77C865,449.2,865,443.47,865,437.75Zm-51.36-.36c0,5.85.08,11.69,0,17.54,0,2.06.48,2.81,2.67,2.75,5.47-.15,11-.13,16.42,0,2.06,0,2.78-.48,2.77-2.67-.11-11.82-.09-23.64,0-35.46,0-1.9-.46-2.62-2.48-2.57-5.6.12-11.2.15-16.79,0-2.33-.07-2.58,1-2.55,2.88C813.74,425.69,813.68,431.54,813.68,437.39Zm-37.09.06c0-5.86-.05-11.72,0-17.57,0-1.92-.26-3-2.59-2.91-5.6.15-11.21.1-16.82,0-1.87,0-2.62.47-2.6,2.5q.12,17.94,0,35.88c0,1.85.66,2.33,2.39,2.31,5.6-.09,11.21-.16,16.82,0,2.47.09,2.86-.92,2.81-3.05C776.52,448.91,776.59,443.18,776.59,437.45ZM725.37,437c0,6,.08,12,0,17.92-.05,2.08.5,2.8,2.68,2.74,5.47-.15,10.94-.13,16.42,0,2.07.05,2.76-.51,2.74-2.68q-.15-17.53,0-35.08c0-2.24-.5-3-2.87-3-5.34.18-10.7.16-16,0-2.27-.07-3,.54-2.94,2.89C725.49,425.57,725.37,431.3,725.37,437Zm-7.51.12c0-5.86-.07-11.72,0-17.57,0-1.92-.51-2.63-2.5-2.59-5.61.11-11.22.09-16.82,0-1.81,0-2.7.33-2.68,2.43q.12,17.94,0,35.88c0,1.76.53,2.4,2.33,2.37,5.73-.09,11.47-.12,17.2,0,2.05,0,2.5-.72,2.46-2.6C717.79,449.1,717.86,443.12,717.86,437.14Zm66.42,0c0,6,.06,12,0,17.94,0,1.85.41,2.66,2.46,2.62,5.73-.13,11.46-.11,17.19,0,1.82,0,2.31-.6,2.31-2.36q-.11-17.94,0-35.88c0-2.07-.8-2.47-2.63-2.44-5.61.08-11.21.1-16.82,0-2,0-2.55.66-2.52,2.58C784.35,425.41,784.29,431.27,784.28,437.12Zm88.36.08c0,6,.07,12,0,17.94,0,2,.57,2.58,2.54,2.53,5.35-.11,10.71-.12,16.07,0,2.37.06,3.33-.69,3.31-3.19q-.15-17.19,0-34.39c0-2.62-1.17-3.14-3.41-3.1-5.23.09-10.47.16-15.7,0-2.47-.09-2.86.91-2.82,3.05C872.71,425.73,872.63,431.47,872.64,437.2Zm-184.41.31c0-6-.07-12,0-17.95,0-1.92-.54-2.62-2.53-2.58-5.48.11-11,.1-16.45,0-2.32,0-3,1-3,3.17q.11,17.19,0,34.4c0,2.2.72,3.15,3,3.11,5.48-.11,11-.12,16.45,0,2,0,2.52-.72,2.49-2.6C688.17,449.22,688.23,443.36,688.23,437.51Z" transform="translate(-548.63 -292.1)"/><path class="cls-1" d="M780.43,307.73c36.54,0,73.07.14,109.61-.1,8.31-.06,12.36,4,12.05,12.2-.42,11.21-.09,22.44-.11,33.66,0,6.33-3.45,10-9.73,10.36-.74,0-1.49,0-2.24,0q-109.62,0-219.22,0c-3.58,0-7-.3-9.58-3.18a10.23,10.23,0,0,1-2.43-7.23c.07-11.59,0-23.19,0-34.79,0-7.62,3.25-10.92,10.89-10.93q39.84,0,79.68,0ZM843,335.62c0,5.85.11,11.7-.05,17.55-.06,2.35.77,3,3,2.92q8.21-.19,16.42,0c2.17.05,2.76-.74,2.74-2.81q-.12-17.55,0-35.1c0-2-.36-2.92-2.63-2.86-5.6.15-11.21.14-16.81,0-2.14-.05-2.76.64-2.71,2.75C843.05,323.92,843,329.77,843,335.62Zm-125.1.36c0-6-.1-12,0-18,.06-2.15-.63-2.76-2.74-2.71-5.48.14-11,.12-16.45,0-2,0-2.85.4-2.83,2.64.1,11.84.08,23.69,0,35.53,0,1.95.61,2.61,2.57,2.57,5.36-.11,10.72-.16,16.08,0,2.54.08,3.48-.58,3.38-3.28C717.71,347.21,717.86,341.59,717.86,336Zm117.58-.35c0-5.85-.09-11.71,0-17.56,0-2.07-.49-2.81-2.67-2.75-5.48.15-11,.14-16.43,0-2.07-.05-2.77.51-2.75,2.67q.15,17.55,0,35.1c0,2.22.46,3.07,2.86,3,5.34-.18,10.7-.16,16,0,2.27.07,3-.56,3-2.9C835.32,347.33,835.44,341.48,835.44,335.63Zm-29.27.18c0-6-.07-12,.05-17.95,0-2-.55-2.57-2.52-2.53-5.61.12-11.22.14-16.82,0-2.27-.06-2.65.84-2.63,2.83q.11,17.58,0,35.15c0,2.09.58,2.83,2.73,2.78,5.49-.13,11-.18,16.45,0,2.51.09,2.84-1,2.79-3.08C806.1,347.28,806.17,341.54,806.17,335.81Zm-29.58.17c0-5.86-.12-11.72.06-17.58.08-2.52-.78-3.15-3.17-3.08-5.35.16-10.72.13-16.07,0-2-.05-2.83.41-2.81,2.64.1,11.85.08,23.69,0,35.53,0,2,.63,2.6,2.56,2.57,5.36-.1,10.73-.16,16.08,0,2.55.09,3.5-.57,3.4-3.29C776.45,347.2,776.59,341.59,776.59,336Zm-51.22,0c0,5.85.07,11.71,0,17.55,0,2,.58,2.58,2.54,2.54,5.59-.11,11.2-.12,16.8,0,2,.05,2.5-.67,2.49-2.58q-.1-17.92,0-35.85c0-1.81-.58-2.33-2.35-2.3-5.6.09-11.2.13-16.8,0-2.16-.05-2.73.65-2.68,2.74C725.46,324,725.37,330,725.37,336Zm147.27-.42c0,6,.06,12,0,17.95,0,1.94.57,2.6,2.54,2.56,5.36-.11,10.72-.1,16.08,0,2.36,0,3.32-.75,3.3-3.25-.1-11.47-.08-22.93,0-34.4,0-2.25-.76-3.12-3-3.07-5.36.1-10.73.17-16.08,0-2.5-.09-2.84.93-2.8,3.05C872.71,324.09,872.63,329.82,872.64,335.56Zm-184.41.29c0-5.86-.1-11.72,0-17.58.05-2.25-.55-3-2.9-2.95q-7.86.26-15.71,0c-2.72-.09-3.41,1-3.39,3.53q.13,16.83,0,33.66c0,2.55.76,3.62,3.41,3.56,5.23-.13,10.47-.15,15.71,0,2.39.07,2.92-.84,2.87-3C688.14,347.33,688.23,341.59,688.23,335.85Z" transform="translate(-548.63 -292.1)"/><path class="cls-2" d="M780.43,566.87H670.08c-8.13,0-11.26-3.15-11.27-11.28q0-17,0-34c0-7.1,3.63-10.73,10.84-10.74q33.11,0,66.21,0H890c8.77,0,12,3.18,12,11.84q0,16.64,0,33.29c0,7.65-3.23,10.94-10.81,10.94ZM843,538.76c0,6,.09,12-.05,17.94,0,2.15.64,2.75,2.73,2.7,5.61-.14,11.22-.12,16.82,0,1.9,0,2.6-.45,2.59-2.48q-.14-17.94,0-35.89c0-1.92-.58-2.64-2.56-2.6-5.61.1-11.22.11-16.82,0-2.13,0-2.79.65-2.75,2.78C843.07,527,843,532.9,843,538.76Zm-95.85.19c0-6-.07-12,0-17.92,0-2-.59-2.59-2.54-2.56q-8.4.16-16.8,0c-2,0-2.51.68-2.5,2.59q.1,17.93,0,35.84c0,2,.62,2.52,2.54,2.48,5.6-.11,11.21-.12,16.8,0,2,0,2.55-.55,2.51-2.51C747.05,550.9,747.13,544.92,747.13,539Zm66.54-.21c0,6,.08,11.94,0,17.91,0,2,.4,2.81,2.61,2.75,5.59-.16,11.2-.14,16.79,0,2,.05,2.49-.56,2.48-2.51q-.13-17.89,0-35.81c0-2.24-.81-2.68-2.81-2.64-5.47.11-11,.14-16.41,0-2.22-.06-2.7.75-2.65,2.79C813.74,527.05,813.67,532.9,813.67,538.74Zm-29.37,0c0,6,.09,12,0,17.92,0,2.11.58,2.78,2.71,2.72,5.47-.13,10.95-.12,16.42,0,2,0,2.82-.4,2.8-2.63-.1-11.82-.12-23.64,0-35.46,0-2.52-1-2.85-3.09-2.81-5.22.09-10.45.13-15.67,0-2.38-.06-3.28.56-3.2,3.11C784.43,527.29,784.3,533,784.3,538.74Zm-7.74,0c0-5.72-.07-11.45,0-17.17,0-2.1-.33-3.19-2.81-3.12-5.47.16-10.95.13-16.42,0-2.16,0-2.73.75-2.71,2.82q.12,17.73,0,35.46c0,2.25.82,2.67,2.82,2.63,5.47-.11,10.95-.13,16.42,0,2.12.06,2.77-.59,2.72-2.72C776.47,550.69,776.56,544.72,776.56,538.75Zm-58.74,0c0-5.73-.08-11.45,0-17.17,0-2.12-.31-3.19-2.8-3.12-5.47.16-10.95.13-16.42,0-2.17-.05-2.73.76-2.72,2.82q.12,17.73,0,35.46c0,2.23.82,2.67,2.81,2.63,5.47-.11,10.95-.13,16.42,0,2.12.05,2.78-.59,2.73-2.73C717.73,550.69,717.82,544.72,717.82,538.75ZM872.6,539c0,6,.08,12-.05,17.91,0,2,.58,2.53,2.52,2.49,5.34-.13,10.7-.16,16,0,2.67.09,3.43-.93,3.41-3.48q-.15-17,0-33.95c0-2.61-.89-3.57-3.45-3.52-5.22.1-10.45.16-15.67,0-2.45-.09-2.89.87-2.84,3C872.68,527.3,872.6,533.15,872.6,539Zm-184.4,0c0-6-.06-12,0-17.92,0-1.93-.58-2.64-2.55-2.6-5.47.1-11,0-16.43,0-2,0-2.94.79-2.93,2.9q.07,17.55,0,35.09c0,2,.79,2.9,2.89,2.87,5.48-.09,11-.14,16.43,0,2.3.07,2.61-.9,2.58-2.85C688.14,550.69,688.2,544.84,688.2,539Z" transform="translate(-548.63 -292.1)"/><path class="cls-3" d="M865,437.75c0,5.72-.08,11.45,0,17.17,0,2.08-.58,2.82-2.73,2.77-5.6-.14-11.2-.15-16.8,0-2.25.06-2.64-.85-2.62-2.84q.11-17.53,0-35.08c0-2.07.52-2.86,2.7-2.81,5.6.13,11.2.14,16.79,0,2.27-.06,2.69.89,2.66,2.87C865,425.8,865,431.78,865,437.75Z" transform="translate(-548.63 -292.1)"/><path class="cls-4" d="M813.68,437.39c0-5.85.06-11.7,0-17.54,0-1.91.22-3,2.55-2.88,5.59.16,11.19.13,16.79,0,2-.05,2.49.67,2.48,2.57-.07,11.82-.09,23.64,0,35.46,0,2.19-.71,2.71-2.77,2.67-5.47-.13-11-.15-16.42,0-2.19.06-2.71-.69-2.67-2.75C813.76,449.08,813.68,443.24,813.68,437.39Z" transform="translate(-548.63 -292.1)"/><path class="cls-5" d="M776.59,437.45c0,5.73-.07,11.46,0,17.19,0,2.13-.34,3.14-2.81,3.05-5.61-.18-11.22-.11-16.82,0-1.73,0-2.4-.46-2.39-2.31q.1-17.94,0-35.88c0-2,.73-2.53,2.6-2.5,5.61.09,11.22.14,16.82,0,2.33-.07,2.62,1,2.59,2.91C776.54,425.73,776.59,431.59,776.59,437.45Z" transform="translate(-548.63 -292.1)"/><path class="cls-4" d="M725.37,437c0-5.72.12-11.45,0-17.16-.07-2.35.67-3,2.94-2.89,5.34.15,10.7.17,16,0,2.37-.08,2.89.72,2.87,3q-.15,17.54,0,35.08c0,2.17-.67,2.73-2.74,2.68-5.48-.13-10.95-.15-16.42,0-2.18.06-2.73-.66-2.68-2.74C725.45,449,725.37,443,725.37,437Z" transform="translate(-548.63 -292.1)"/><path class="cls-5" d="M717.86,437.14c0,6-.07,12,0,17.94,0,1.88-.41,2.64-2.46,2.6-5.73-.13-11.47-.1-17.2,0-1.8,0-2.34-.61-2.33-2.37q.09-17.94,0-35.88c0-2.1.87-2.46,2.68-2.43,5.6.08,11.21.1,16.82,0,2,0,2.54.67,2.5,2.59C717.79,425.42,717.86,431.28,717.86,437.14Z" transform="translate(-548.63 -292.1)"/><path class="cls-6" d="M784.28,437.12c0-5.85.07-11.71,0-17.56,0-1.92.53-2.62,2.52-2.58,5.61.11,11.21.09,16.82,0,1.83,0,2.64.37,2.63,2.44q-.13,17.94,0,35.88c0,1.76-.49,2.39-2.31,2.36-5.73-.1-11.46-.12-17.19,0-2.05,0-2.49-.77-2.46-2.62C784.34,449.08,784.28,443.1,784.28,437.12Z" transform="translate(-548.63 -292.1)"/><path class="cls-6" d="M872.63,437.2c0-5.73.08-11.47,0-17.19,0-2.14.35-3.14,2.82-3.05,5.23.19,10.47.12,15.7,0,2.24,0,3.44.48,3.41,3.1q-.15,17.19,0,34.39c0,2.5-.94,3.25-3.31,3.19-5.36-.12-10.72-.11-16.07,0-2,.05-2.58-.57-2.54-2.53C872.71,449.16,872.64,443.18,872.63,437.2Z" transform="translate(-548.63 -292.1)"/><path class="cls-6" d="M688.23,437.51c0,5.85-.06,11.71,0,17.57,0,1.88-.47,2.64-2.49,2.6-5.48-.13-11-.12-16.45,0-2.31,0-3-.91-3-3.11q.09-17.21,0-34.4c0-2.19.67-3.21,3-3.17,5.49.09,11,.1,16.45,0,2,0,2.56.66,2.53,2.58C688.16,425.54,688.23,431.52,688.23,437.51Z" transform="translate(-548.63 -292.1)"/><path class="cls-3" d="M843,335.62c0-5.85.09-11.7,0-17.55,0-2.11.57-2.8,2.71-2.75,5.6.13,11.21.14,16.81,0,2.27-.06,2.64.88,2.63,2.86q-.11,17.55,0,35.1c0,2.07-.57,2.86-2.74,2.81q-8.21-.18-16.42,0c-2.23.05-3.06-.57-3-2.92C843.07,347.32,843,341.47,843,335.62Z" transform="translate(-548.63 -292.1)"/><path class="cls-5" d="M717.86,336c0,5.61-.15,11.23.06,16.83.1,2.7-.84,3.36-3.38,3.28-5.36-.18-10.72-.13-16.08,0-2,0-2.58-.62-2.57-2.57.07-11.84.09-23.69,0-35.53,0-2.24.83-2.68,2.83-2.64,5.48.11,11,.13,16.45,0,2.11-.05,2.8.56,2.74,2.71C717.76,324,717.86,330,717.86,336Z" transform="translate(-548.63 -292.1)"/><path class="cls-4" d="M835.44,335.63c0,5.85-.12,11.7,0,17.55.07,2.34-.68,3-3,2.9-5.35-.15-10.71-.17-16,0-2.4.08-2.88-.77-2.86-3q.15-17.55,0-35.1c0-2.16.68-2.72,2.75-2.67,5.47.13,11,.14,16.43,0,2.18-.06,2.72.68,2.67,2.75C835.35,323.92,835.44,329.78,835.44,335.63Z" transform="translate(-548.63 -292.1)"/><path class="cls-6" d="M806.17,335.81c0,5.73-.07,11.47,0,17.2,0,2.11-.28,3.17-2.79,3.08-5.47-.19-11-.14-16.45,0-2.15.05-2.74-.69-2.73-2.78q.13-17.58,0-35.15c0-2,.36-2.89,2.63-2.83,5.6.15,11.21.13,16.82,0,2,0,2.55.57,2.52,2.53C806.1,323.84,806.17,329.83,806.17,335.81Z" transform="translate(-548.63 -292.1)"/><path class="cls-5" d="M776.59,336c0,5.61-.14,11.22.06,16.82.1,2.72-.85,3.38-3.4,3.29-5.35-.18-10.72-.12-16.08,0-1.93,0-2.57-.6-2.56-2.57.07-11.84.09-23.68,0-35.53,0-2.23.79-2.69,2.81-2.64,5.35.12,10.72.15,16.07,0,2.39-.07,3.25.56,3.17,3.08C776.47,324.26,776.59,330.12,776.59,336Z" transform="translate(-548.63 -292.1)"/><path class="cls-4" d="M725.37,336c0-6,.09-12,0-17.92-.05-2.09.52-2.79,2.68-2.74,5.6.15,11.2.11,16.8,0,1.77,0,2.36.49,2.35,2.3q-.1,17.92,0,35.85c0,1.91-.48,2.63-2.49,2.58-5.6-.12-11.21-.11-16.8,0-2,0-2.57-.58-2.54-2.54C725.44,347.69,725.37,341.83,725.37,336Z" transform="translate(-548.63 -292.1)"/><path class="cls-6" d="M872.63,335.56c0-5.74.08-11.47,0-17.2,0-2.12.3-3.14,2.8-3.05,5.35.2,10.72.13,16.08,0,2.28,0,3,.82,3,3.07-.07,11.47-.09,22.93,0,34.4,0,2.5-.94,3.29-3.3,3.25-5.36-.09-10.72-.1-16.08,0-2,0-2.58-.62-2.54-2.56C872.7,347.52,872.64,341.54,872.63,335.56Z" transform="translate(-548.63 -292.1)"/><path class="cls-6" d="M688.23,335.85c0,5.74-.09,11.48,0,17.21.05,2.19-.48,3.1-2.87,3-5.24-.17-10.48-.15-15.71,0-2.65.06-3.43-1-3.41-3.56q.15-16.83,0-33.66c0-2.51.67-3.62,3.39-3.53q7.85.26,15.71,0c2.35-.08,3,.7,2.9,2.95C688.13,324.13,688.23,330,688.23,335.85Z" transform="translate(-548.63 -292.1)"/><path class="cls-7" d="M843,538.76c0-5.86.09-11.72-.05-17.57,0-2.13.62-2.82,2.75-2.78,5.6.12,11.21.11,16.82,0,2,0,2.57.68,2.56,2.6q-.1,17.94,0,35.89c0,2-.69,2.52-2.59,2.48-5.6-.11-11.21-.13-16.82,0-2.09.05-2.78-.55-2.73-2.7C843.07,550.72,843,544.74,843,538.76Z" transform="translate(-548.63 -292.1)"/><path class="cls-8" d="M747.13,539c0,6-.08,11.95,0,17.92,0,2-.53,2.56-2.51,2.51-5.59-.12-11.2-.11-16.8,0-1.92,0-2.56-.46-2.54-2.48q.13-17.91,0-35.84c0-1.91.5-2.63,2.5-2.59q8.4.16,16.8,0c2,0,2.58.6,2.54,2.56C747.06,527,747.13,533,747.13,539Z" transform="translate(-548.63 -292.1)"/><path class="cls-9" d="M813.67,538.74c0-5.84.07-11.69,0-17.53,0-2,.43-2.85,2.65-2.79,5.46.15,10.94.12,16.41,0,2,0,2.83.4,2.81,2.64q-.15,17.89,0,35.81c0,2-.49,2.56-2.48,2.51-5.59-.13-11.2-.15-16.79,0-2.21.06-2.65-.73-2.61-2.75C813.75,550.68,813.67,544.71,813.67,538.74Z" transform="translate(-548.63 -292.1)"/><path class="cls-8" d="M784.3,538.74c0-5.72.13-11.45-.06-17.17-.08-2.55.82-3.17,3.2-3.11,5.22.15,10.45.11,15.67,0,2.07,0,3.12.29,3.09,2.81-.13,11.82-.11,23.64,0,35.46,0,2.23-.79,2.67-2.8,2.63-5.47-.12-10.95-.13-16.42,0-2.13.06-2.76-.61-2.71-2.72C784.39,550.69,784.3,544.72,784.3,538.74Z" transform="translate(-548.63 -292.1)"/><path class="cls-8" d="M776.56,538.75c0,6-.09,11.94,0,17.91,0,2.13-.6,2.78-2.72,2.72-5.47-.13-11-.11-16.42,0-2,0-2.84-.38-2.82-2.63q.15-17.73,0-35.46c0-2.07.55-2.86,2.71-2.82,5.47.12,10.95.15,16.42,0,2.48-.07,2.85,1,2.81,3.12C776.49,527.3,776.56,533,776.56,538.75Z" transform="translate(-548.63 -292.1)"/><path class="cls-8" d="M717.82,538.75c0,6-.09,11.94,0,17.91,0,2.14-.61,2.78-2.73,2.73-5.47-.14-10.95-.12-16.42,0-2,0-2.83-.4-2.81-2.63q.15-17.73,0-35.46c0-2.06.55-2.87,2.72-2.82,5.47.12,11,.15,16.42,0,2.49-.07,2.85,1,2.8,3.12C717.74,527.3,717.82,533,717.82,538.75Z" transform="translate(-548.63 -292.1)"/><path class="cls-9" d="M872.6,539c0-5.84.08-11.69,0-17.54,0-2.17.39-3.13,2.84-3,5.22.19,10.45.13,15.67,0,2.56-.05,3.48.91,3.45,3.52q-.16,17,0,33.95c0,2.55-.74,3.57-3.41,3.48-5.34-.16-10.7-.13-16,0-1.94,0-2.56-.5-2.52-2.49C872.68,550.94,872.6,545,872.6,539Z" transform="translate(-548.63 -292.1)"/><path class="cls-8" d="M688.2,539c0,5.84-.06,11.69,0,17.54,0,2-.28,2.92-2.58,2.85-5.47-.16-10.95-.11-16.43,0-2.1,0-2.89-.84-2.89-2.87q0-17.55,0-35.09c0-2.11.95-2.91,2.93-2.9,5.48,0,11,.07,16.43,0,2,0,2.58.67,2.55,2.6C688.14,527.05,688.2,533,688.2,539Z" transform="translate(-548.63 -292.1)"/><path class="cls-10" d="M548.63,437.07a43.51,43.51,0,1,1,87,.67c-.09,24-19.91,43.07-44.6,42.93C567.82,480.54,548.52,460.7,548.63,437.07Zm7.67,0a35.92,35.92,0,1,0,71.83.16c0-19.47-16.2-35.81-35.53-35.86C572.39,401.29,556.34,417.07,556.3,437.05Z" transform="translate(-548.63 -292.1)"/><path class="cls-10" d="M548.63,539a43.54,43.54,0,0,1,43.21-43.63c23.89-.17,43.72,19.32,43.8,43,.08,24.18-19.33,44-43.22,44A43.61,43.61,0,0,1,548.63,539ZM592,503.05A35.64,35.64,0,0,0,556.3,539a36,36,0,0,0,35.94,35.85c19.62-.09,36-16.52,35.85-36.07A36,36,0,0,0,592,503.05Z" transform="translate(-548.63 -292.1)"/><path class="cls-10" d="M592.17,379a43.47,43.47,0,0,1-.46-86.94c24.23-.05,43.9,19.31,43.93,43.26A43.48,43.48,0,0,1,592.17,379ZM556.3,335.61a35.69,35.69,0,0,0,35.77,35.83,36.09,36.09,0,0,0,36.06-35.69c.12-19.67-16.39-36.2-36.11-36.14A36,36,0,0,0,556.3,335.61Z" transform="translate(-548.63 -292.1)"/><path class="cls-5" d="M556.3,437.05c0-20,16.09-35.76,36.3-35.7,19.33,0,35.52,16.39,35.53,35.86a35.92,35.92,0,1,1-71.83-.16Zm32.62,5.74c-2.53-2.63-4.84-5.06-7.18-7.45-1.83-1.87-3.9-2.39-5.8-.3-1.7,1.88-1.28,3.82.51,5.57,3,3,5.95,6,8.95,9s4.53,2.85,7.53-.11c4.86-4.8,9.65-9.68,14.51-14.48,1.93-1.9,3.43-4.05,1.2-6.41-2.43-2.56-4.67-1-6.67,1.05C597.71,434,593.42,438.26,588.92,442.79Z" transform="translate(-548.63 -292.1)"/><path class="cls-8" d="M592,503.05a36,36,0,0,1,36.08,35.69c.1,19.55-16.23,36-35.85,36.07A36,36,0,0,1,556.3,539,35.64,35.64,0,0,1,592,503.05Zm16.86,32.35c-2.54-.88-4.66-.92-5.86,1.31s-.09,4,1.6,5.57,3.53,3.53,5.32,5.26,3.77,1.87,5.62.15c2.19-2,4.25-4.22,6.37-6.32a3.73,3.73,0,0,0,.81-4.47c-.74-1.55-2.24-2.63-4-2-2.06.75-2.18-.3-2.58-1.81-3.32-12.46-13.52-19.7-26.42-18.83-9.49.64-18.17,7.54-21.23,16.89a24.88,24.88,0,0,0,7.73,26.7c7.48,6.34,18.56,7.61,26.94,3.16,2.29-1.21,3.65-2.85,2.47-5.39s-3.3-2.72-5.65-1.53a16.84,16.84,0,0,1-8.64,2c-8.83-.49-16-7.53-16.35-16-.4-9.13,5.73-17,14.22-18.24C598.4,520.51,606.2,525.69,608.87,535.4Z" transform="translate(-548.63 -292.1)"/><path class="cls-5" d="M556.3,335.61a36,36,0,0,1,35.72-36c19.72-.06,36.23,16.47,36.11,36.14a36.09,36.09,0,0,1-36.06,35.69A35.69,35.69,0,0,1,556.3,335.61Zm53.3-6a3.27,3.27,0,0,0-1.78-3.43,3.62,3.62,0,0,0-4.46.63c-2.67,2.62-5.29,5.28-8,7.89-2,2-4,5.39-6.21,5.54-2.55.17-4.24-3.67-6.47-5.58-.38-.32-.68-.73-1.05-1.06-1.82-1.58-3.81-2.06-5.63-.21s-1.38,3.81.36,5.56c3.07,3.09,6.18,6.13,9.22,9.26,2.41,2.49,4.67,2.34,7-.07q7.62-7.69,15.31-15.32A4.34,4.34,0,0,0,609.6,329.58Z" transform="translate(-548.63 -292.1)"/><path class="cls-1" d="M588.92,442.79c4.5-4.53,8.79-8.83,13.05-13.17,2-2,4.24-3.61,6.67-1.05,2.23,2.36.73,4.51-1.2,6.41-4.86,4.8-9.65,9.68-14.51,14.48-3,3-4.63,3-7.53.11s-5.94-6-8.95-9c-1.79-1.75-2.21-3.69-.51-5.57,1.9-2.09,4-1.57,5.8.3C584.08,437.73,586.39,440.16,588.92,442.79Z" transform="translate(-548.63 -292.1)"/><path class="cls-11" d="M608.87,535.4c-2.67-9.71-10.47-14.89-19.63-13.54-8.49,1.25-14.62,9.11-14.22,18.24.37,8.43,7.52,15.47,16.35,16a16.84,16.84,0,0,0,8.64-2c2.35-1.19,4.48-1,5.65,1.53s-.18,4.18-2.47,5.39c-8.38,4.45-19.46,3.18-26.94-3.16a24.88,24.88,0,0,1-7.73-26.7c3.06-9.35,11.74-16.25,21.23-16.89,12.9-.87,23.1,6.37,26.42,18.83.4,1.51.52,2.56,2.58,1.81,1.74-.63,3.24.45,4,2a3.73,3.73,0,0,1-.81,4.47c-2.12,2.1-4.18,4.28-6.37,6.32-1.85,1.72-3.81,1.6-5.62-.15s-3.49-3.56-5.32-5.26-2.81-3.33-1.6-5.57S606.33,534.52,608.87,535.4Z" transform="translate(-548.63 -292.1)"/><path class="cls-11" d="M609.6,329.58a4.34,4.34,0,0,1-1.63,3.21q-7.68,7.63-15.31,15.32c-2.37,2.41-4.63,2.56-7,.07-3-3.13-6.15-6.17-9.22-9.26-1.74-1.75-2.18-3.72-.36-5.56s3.81-1.37,5.63.21c.37.33.67.74,1.05,1.06,2.23,1.91,3.92,5.75,6.47,5.58,2.19-.15,4.17-3.54,6.21-5.54,2.67-2.61,5.29-5.27,8-7.89a3.62,3.62,0,0,1,4.46-.63A3.27,3.27,0,0,1,609.6,329.58Z" transform="translate(-548.63 -292.1)"/></svg>